<?xml version="1.0" encoding="UTF-8"?>
<svg xmlns="http://www.w3.org/2000/svg" xmlns:xlink="http://www.w3.org/1999/xlink" width="25px" height="25px" viewBox="0 0 25 25" version="1.1">
<g id="surface1">
<path style=" stroke:none;fill-rule:nonzero;fill:rgb(100%,100%,100%);fill-opacity:1;" d="M 20.546875 4.734375 C 20.292969 4.882812 19.492188 5.394531 19.253906 5.558594 L 19.023438 5.71875 L 18.792969 5.570312 C 18.230469 5.214844 17.527344 4.933594 16.867188 4.804688 C 16.246094 4.6875 16.660156 4.691406 10.867188 4.691406 C 5.398438 4.691406 5.492188 4.691406 5.007812 4.769531 C 4.113281 4.914062 3.195312 5.308594 2.480469 5.859375 C 2.265625 6.023438 1.898438 6.375 1.730469 6.578125 C 1.179688 7.246094 0.859375 7.941406 0.707031 8.820312 C 0.679688 8.992188 0.671875 9.464844 0.667969 14.289062 C 0.664062 17.734375 0.671875 19.65625 0.679688 19.816406 C 0.730469 20.421875 0.878906 20.941406 1.15625 21.476562 C 1.429688 22.015625 1.757812 22.4375 2.226562 22.855469 C 2.890625 23.453125 3.773438 23.894531 4.707031 24.097656 C 5.328125 24.234375 4.828125 24.222656 10.851562 24.222656 L 16.257812 24.222656 L 16.53125 24.183594 C 18.347656 23.902344 19.789062 22.925781 20.539062 21.464844 C 20.75 21.046875 20.882812 20.652344 20.96875 20.148438 C 21.003906 19.957031 21.007812 19.683594 21.007812 14.476562 C 21.007812 8.667969 21.007812 8.925781 20.914062 8.5 C 20.765625 7.820312 20.429688 7.144531 19.945312 6.566406 C 19.789062 6.378906 19.769531 6.347656 19.800781 6.355469 C 19.816406 6.363281 20.492188 5.6875 20.679688 5.476562 C 20.859375 5.273438 20.902344 5.171875 20.800781 5.171875 C 20.71875 5.171875 20.15625 5.480469 20.007812 5.601562 C 19.820312 5.761719 19.90625 5.671875 20.34375 5.25 L 20.835938 4.78125 L 20.777344 4.710938 C 20.746094 4.675781 20.710938 4.644531 20.707031 4.648438 C 20.699219 4.648438 20.625 4.6875 20.546875 4.734375 Z M 16.335938 6.78125 C 16.457031 6.804688 16.628906 6.84375 16.71875 6.867188 C 16.90625 6.921875 17.226562 7.042969 17.226562 7.066406 C 17.226562 7.070312 17.066406 7.210938 16.871094 7.375 C 14.296875 9.542969 11.671875 12.410156 9.3125 15.648438 C 9.125 15.90625 8.910156 16.207031 8.835938 16.3125 C 8.761719 16.417969 8.691406 16.5 8.679688 16.496094 C 8.664062 16.492188 5.996094 14.960938 4.421875 14.054688 L 4.28125 13.972656 L 4.21875 14.042969 L 4.160156 14.117188 L 4.378906 14.375 C 5.347656 15.53125 9.515625 20.445312 9.53125 20.445312 C 9.539062 20.445312 9.554688 20.425781 9.570312 20.402344 C 9.578125 20.378906 9.585938 20.375 9.582031 20.390625 C 9.570312 20.425781 9.679688 20.527344 9.757812 20.558594 C 9.835938 20.585938 9.925781 20.539062 9.992188 20.433594 C 10.023438 20.382812 10.140625 20.164062 10.242188 19.945312 C 10.78125 18.851562 11.738281 17.074219 12.414062 15.929688 C 14.070312 13.117188 16.054688 10.410156 18.109375 8.160156 C 18.234375 8.019531 18.316406 7.917969 18.308594 7.90625 C 18.300781 7.890625 18.3125 7.898438 18.335938 7.921875 C 18.453125 8.019531 18.671875 8.40625 18.769531 8.675781 C 18.898438 9.042969 18.890625 8.648438 18.882812 14.542969 L 18.875 19.890625 L 18.824219 20.078125 C 18.792969 20.179688 18.75 20.3125 18.726562 20.367188 C 18.4375 21.078125 17.820312 21.65625 17.035156 21.953125 C 16.664062 22.09375 16.351562 22.160156 15.929688 22.1875 C 15.554688 22.214844 6.117188 22.214844 5.746094 22.1875 C 5.273438 22.15625 4.882812 22.0625 4.476562 21.878906 C 3.605469 21.480469 3.023438 20.808594 2.835938 19.96875 C 2.804688 19.824219 2.804688 19.511719 2.804688 14.46875 C 2.804688 9.398438 2.804688 9.113281 2.835938 8.960938 C 2.914062 8.625 3.03125 8.347656 3.234375 8.058594 C 3.730469 7.339844 4.617188 6.847656 5.59375 6.75 C 5.679688 6.738281 8.085938 6.734375 10.9375 6.738281 L 16.125 6.738281 Z M 16.335938 6.78125 "/>
</g>
</svg>
